HIERARCHY
ROOT Hips
{
	OFFSET -3.958830 18.904000 13.208200
	CHANNELS 6 Xposition Yposition Zposition Zrotation Yrotation Xrotation 
	JOINT LHipJoint
	{
		OFFSET 0.000000 0.000000 0.000000
		CHANNELS 3 Zrotation Yrotation Xrotation
		JOINT LeftUpLeg
		{
			OFFSET 1.800000 -1.400000 0.085000
			CHANNELS 3 Zrotation Yrotation Xrotation
			JOINT LeftLeg
			{
				OFFSET 2.215000 -6.000000 0.000000
				CHANNELS 3 Zrotation Yrotation Xrotation
				JOINT LeftFoot
				{
					OFFSET 2.500000 -6.900000 0.000000
					CHANNELS 3 Zrotation Yrotation Xrotation
					JOINT LeftToeBase
					{
						OFFSET 0.200000 -0.500000 1.950000
						CHANNELS 3 Zrotation Yrotation Xrotation
						End Site
						{
							OFFSET 0.000000 0.000000 0.000000
						}
					}
				}
			}
		}
	}
	JOINT RHipJoint
	{
		OFFSET 0.000000 0.000000 0.000000
		CHANNELS 3 Zrotation Yrotation Xrotation
		JOINT RightUpLeg
		{
			OFFSET -1.800000 -1.400000 0.085000
			CHANNELS 3 Zrotation Yrotation Xrotation
			JOINT RightLeg
			{
				OFFSET -2.215000 -6.000000 0.000000
				CHANNELS 3 Zrotation Yrotation Xrotation
				JOINT RightFoot
				{
					OFFSET -2.500000 -6.900000 0.000000
					CHANNELS 3 Zrotation Yrotation Xrotation
					JOINT RightToeBase
					{
						OFFSET -0.200000 -0.500000 1.950000
						CHANNELS 3 Zrotation Yrotation Xrotation
						End Site
						{
							OFFSET 0.000000 0.000000 0.000000
						}
					}
				}
			}
		}
	}
	JOINT LowerBack
	{
		OFFSET 0.000000 0.000000 0.000000
		CHANNELS 3 Zrotation Yrotation Xrotation
		JOINT Spine
		{
			OFFSET -0.087000 1.940000 -0.288900
			CHANNELS 3 Zrotation Yrotation Xrotation
			JOINT Spine1
			{
				OFFSET 0.000000 1.950000 0.060000
				CHANNELS 3 Zrotation Yrotation Xrotation
				JOINT Neck
				{
					OFFSET 0.000000 0.000000 0.000000
					CHANNELS 3 Zrotation Yrotation Xrotation
					JOINT Neck1
					{
						OFFSET 0.000000 1.600000 0.340000
						CHANNELS 3 Zrotation Yrotation Xrotation
						JOINT Head
						{
							OFFSET 0.000000 1.667000 -0.240000
							CHANNELS 3 Zrotation Yrotation Xrotation
							End Site
							{
								OFFSET 0.000000 0.000000 0.000000
							}
						}
					}
				}
				JOINT LeftShoulder
				{
					OFFSET 0.000000 0.000000 0.000000
					CHANNELS 3 Zrotation Yrotation Xrotation
					JOINT LeftArm
					{
						OFFSET 2.700000 1.550000 -0.730000
						CHANNELS 3 Zrotation Yrotation Xrotation
						JOINT LeftForeArm
						{
							OFFSET 5.450000 0.000000 0.000000
							CHANNELS 3 Zrotation Yrotation Xrotation
							JOINT LeftHand
							{
								OFFSET 3.450000 0.000000 0.000000
								CHANNELS 3 Zrotation Yrotation Xrotation
								JOINT LeftHandIndex1
								{
									OFFSET 0.750000 0.000000 0.000000
									CHANNELS 3 Zrotation Yrotation Xrotation
									End Site
									{
										OFFSET 0.000000 0.000000 0.000000
									}
								}
							}
						}
					}
				}
				JOINT RightShoulder
				{
					OFFSET 0.000000 0.000000 0.000000
					CHANNELS 3 Zrotation Yrotation Xrotation
					JOINT RightArm
					{
						OFFSET -2.700000 1.550000 -0.730000
						CHANNELS 3 Zrotation Yrotation Xrotation
						JOINT RightForeArm
						{
							OFFSET -5.450000 0.000000 0.000000
							CHANNELS 3 Zrotation Yrotation Xrotation
							JOINT RightHand
							{
								OFFSET -3.450000 0.000000 0.000000
								CHANNELS 3 Zrotation Yrotation Xrotation
								JOINT RightHandIndex1
								{
									OFFSET -0.750000 0.000000 0.000000
									CHANNELS 3 Zrotation Yrotation Xrotation
									End Site
									{
										OFFSET 0.000000 0.000000 0.000000
									}
								}
							}
						}
					}
				}
			}
		}
	}
}
MOTION
Frames: 14
Frame Time: 0.016667
-0.219140 17.824440 -1.258120 -15.663694 14.056454 -6.835618 -15.063208 12.332544 1.582710 16.062948 -0.077965 -15.436764 -4.940299 8.302153 22.404159 -0.268852 5.130931 2.823903 0.309220 -0.073380 0.183860 18.688099 -8.108414 6.435484 -19.903902 16.707679 -52.034753 11.850221 -40.220087 99.186959 -3.970300 -18.748785 -0.726197 -0.070110 0.245010 -0.023310 -4.372180 -2.257371 -9.403627 16.844119 -3.123901 28.566804 -5.147416 1.188700 0.249010 1.750254 -2.075570 -9.917960 -9.319561 1.245083 54.801580 9.404790 -8.952620 -2.405590 -24.005204 -4.900562 1.936051 -43.261863 6.844061 -11.630916 -45.530316 -29.789410 7.044876 -3.469389 2.975781 0.609660 -0.035960 -0.073400 0.218930 20.166700 7.031280 6.968122 44.284121 -12.697816 -16.454519 53.717018 42.494161 12.979624 2.096696 -1.529747 -0.239950 0.339240 -0.026740 -0.166530 
-0.220230 17.879800 -1.255690 -16.400881 14.383265 -7.132072 -15.026689 12.244080 1.571120 16.833779 -0.048682 -14.524318 -5.422940 8.055883 20.471591 -0.278388 5.001922 2.864276 0.332130 -0.055140 0.207020 18.734783 -8.092601 6.456935 -19.601394 17.047765 -52.701011 12.130810 -40.436152 99.028894 -3.997772 -18.810300 -0.749918 -0.065350 0.215890 -0.000980 -4.492653 -2.107969 -9.410475 18.183558 -3.654496 28.096655 -5.949880 0.993513 0.780626 1.993999 -1.857316 -10.160278 -8.822272 0.832680 55.047711 8.913570 -8.955330 -2.638060 -23.776185 -5.793537 2.260384 -42.920671 6.407266 -11.429622 -45.355892 -29.835523 7.030024 -3.457184 3.003984 0.612890 -0.044450 -0.054840 0.214920 19.382429 7.612620 7.173848 44.176409 -11.826319 -16.096559 53.973658 42.334651 13.031245 2.109882 -1.547440 -0.217600 0.308960 -0.038090 -0.171800 
-0.227230 17.965670 -1.237210 -16.980652 14.641951 -7.287281 -14.999782 12.139785 1.560212 17.413144 -0.042786 -13.264864 -5.903121 7.707467 18.037289 -0.294170 4.851166 2.931491 0.351180 -0.031520 0.210950 18.780013 -8.057615 6.489712 -19.122290 17.700320 -53.706339 12.642828 -40.178859 98.323888 -3.984740 -18.767908 -0.736994 -0.048310 0.214960 -0.002220 -4.593793 -1.953306 -9.414853 18.991626 -3.849162 27.165324 -6.344489 0.947288 1.553677 2.097432 -1.661786 -10.204538 -8.263170 0.574377 54.689004 9.051930 -9.024100 -2.880280 -23.222228 -6.407464 2.439489 -43.003091 5.402043 -10.931481 -44.525895 -28.905263 6.552390 -3.461479 3.007803 0.605100 -0.041080 -0.060250 0.222540 18.572625 7.952149 7.153650 42.907361 -10.580055 -15.120905 55.127674 41.415447 13.154656 2.115475 -1.567890 -0.213420 0.307480 -0.047190 -0.170910 
-0.231640 18.067610 -1.222790 -17.935893 14.846053 -7.990742 -14.955486 12.078860 1.532698 17.937477 -0.012164 -11.578411 -5.636756 7.139178 15.533152 -0.312634 4.673565 3.011313 0.377980 -0.002090 0.229710 18.829438 -8.080921 6.484876 -18.291667 18.451207 -53.879436 14.890841 -39.710292 94.921996 -3.909147 -18.394619 -0.678810 -0.030870 0.198870 0.000260 -4.735104 -1.756655 -9.382239 20.688066 -4.247598 26.722435 -7.116647 1.046191 2.235123 2.279692 -1.603290 -10.387006 -8.156212 0.367491 55.141768 9.542210 -9.364200 -3.894820 -22.903571 -7.332738 2.672468 -43.031406 4.306843 -10.438770 -43.702304 -28.062727 6.090067 -3.447541 2.999106 0.621890 -0.060540 -0.040000 0.227350 17.811977 8.734270 7.320626 41.383923 -9.363716 -14.274412 56.392792 40.584940 13.312386 2.128135 -1.572481 -0.208080 0.313730 -0.058350 -0.171470 
-0.231880 18.162440 -1.207820 -18.686453 15.243442 -8.648127 -14.927643 12.072521 1.537641 17.912136 -0.070950 -9.856190 -4.907680 6.396387 12.803851 -0.332293 4.448469 3.105543 0.403350 0.024270 0.243010 18.856041 -8.123143 6.440504 -17.348931 18.974385 -53.534939 17.550138 -38.153638 89.685138 -3.717621 -17.623490 -0.552028 -0.015170 0.167720 0.004180 -4.828280 -1.656786 -9.336912 22.046034 -4.582236 26.074589 -7.520381 1.100900 2.886060 2.441364 -1.703618 -10.773674 -8.594644 0.313618 56.074459 9.475490 -9.775970 -4.259200 -22.851065 -8.682380 3.141622 -43.463893 3.425693 -10.091784 -42.239617 -27.324685 5.488403 -3.423412 3.004323 0.635300 -0.081690 -0.022550 0.227740 17.413648 10.101682 7.636070 39.358700 -8.131048 -13.413511 57.641462 39.907914 13.527131 2.139058 -1.591249 -0.197170 0.298150 -0.069320 -0.175820 
-0.247490 18.243180 -1.196980 -18.752407 15.629726 -8.769756 -14.931152 12.081947 1.607756 17.286302 -0.231955 -9.001137 -4.741631 5.909428 10.805616 -0.340212 4.327898 3.187355 0.400660 0.015270 0.228200 18.852726 -8.172083 6.368219 -16.135905 19.244174 -53.119983 19.927609 -34.831995 82.616657 -3.366350 -16.337939 -0.306770 -0.013570 0.197120 0.018120 -4.834161 -1.625925 -9.302442 21.977357 -4.483543 25.351998 -7.224587 1.174582 3.340204 2.404350 -1.613848 -10.836905 -8.417585 0.096664 55.600002 9.370320 -10.049570 -3.854590 -22.649347 -9.549553 3.399322 -43.460417 2.258125 -9.317912 -41.341679 -25.911666 4.902550 -3.442661 3.005735 0.628430 -0.065650 -0.032640 0.247160 17.296021 10.884745 7.613665 36.814767 -6.828409 -12.346406 59.691369 39.508209 14.240380 2.142116 -1.624016 -0.203580 0.303660 -0.068140 -0.164320 
-0.255270 18.310010 -1.172840 -18.780079 16.653869 -8.871686 -14.938810 12.120019 1.732691 16.490189 -0.408623 -8.239934 -4.926189 5.545309 8.849765 -0.328948 4.252759 3.248050 0.378710 -0.005910 0.197060 18.834726 -8.283047 6.178464 -14.414814 18.901500 -51.620031 19.835346 -30.614641 76.853926 -2.951123 -14.938810 -0.003872 -0.017460 0.234030 0.008750 -4.833035 -1.636956 -9.237060 21.888773 -4.550407 24.286257 -6.792097 0.889750 3.624104 2.265128 -1.642196 -10.791247 -8.452803 0.183400 54.959369 9.532160 -10.267040 -2.832590 -22.779153 -10.198548 3.612161 -43.373607 1.373932 -8.546303 -40.925352 -24.233260 4.361763 -3.471549 3.006912 0.596040 -0.040500 -0.067480 0.256280 17.717451 11.399272 7.477761 34.329739 -5.827117 -11.412894 60.349823 39.280249 14.647595 2.143037 -1.641448 -0.213660 0.312370 -0.058040 -0.151510 
-0.265740 18.344690 -1.145530 -18.342472 17.848529 -8.815509 -14.972571 12.216609 1.867016 15.181498 -0.529446 -7.686804 -5.393311 5.371888 7.726084 -0.315152 4.185419 3.283590 0.362520 -0.014890 0.184580 18.785287 -8.393395 5.999668 -12.554372 18.394423 -50.388202 17.870721 -26.023117 72.373218 -2.541254 -13.521522 0.314807 -0.025460 0.230170 -0.001050 -4.758299 -1.739218 -9.193913 20.880436 -4.458324 23.224231 -6.120919 0.550666 3.731136 2.211591 -1.376156 -11.151737 -7.945217 0.112256 55.096719 9.309130 -10.094700 -2.073760 -22.207973 -11.196729 4.121482 -44.202187 0.751046 -8.034573 -40.107334 -21.972462 3.470507 -3.477160 3.001427 0.584320 -0.038800 -0.074040 0.250570 17.331010 12.188122 7.597021 33.552694 -4.892081 -10.909060 60.371300 38.638202 14.452768 2.158215 -1.638812 -0.213410 0.303650 -0.054480 -0.150490 
-0.284350 18.378390 -1.124880 -16.918718 19.356831 -8.962841 -15.062505 12.527269 2.034447 12.779088 -0.500463 -7.011571 -5.314587 5.210778 7.534713 -0.295283 4.056028 3.340108 0.379870 0.006320 0.224360 18.632828 -8.645218 5.703905 -10.974265 16.813687 -47.816659 15.296658 -20.749268 66.086508 -2.039805 -11.621958 0.786153 -0.035590 0.200720 0.006140 -4.492310 -2.012567 -9.119532 17.918505 -3.999080 23.180285 -4.710018 0.249540 3.634572 2.119501 -0.909533 -11.708075 -7.190709 -0.339900 56.221612 9.181660 -9.999370 -2.663800 -21.448750 -12.292683 4.730207 -44.904437 0.290722 -7.742661 -39.549859 -20.419237 2.839524 -3.461661 2.972603 0.599180 -0.058970 -0.032370 0.247810 16.990776 13.210407 7.783979 33.342039 -3.874822 -10.669423 59.329947 37.700756 13.688983 2.184307 -1.597066 -0.190880 0.304780 -0.076110 -0.150800 
-0.302430 18.378990 -1.107490 -16.046338 20.511914 -8.952952 -15.128785 12.780464 2.217777 11.212083 -0.468691 -6.645461 -5.849576 5.307798 7.850812 -0.314388 4.043619 3.318284 0.407890 0.036630 0.271300 18.502557 -8.922421 5.363728 -8.734369 15.296413 -45.353350 12.178551 -15.615598 58.806644 -1.513365 -9.539552 1.343355 -0.023730 0.143270 0.009810 -4.284395 -2.155790 -8.998134 15.816013 -3.611785 22.414010 -3.486421 -0.008833 3.987848 2.165000 -0.331026 -12.093150 -6.035432 -0.937215 57.078967 8.513120 -9.476260 -3.870230 -20.390697 -13.179805 5.254515 -45.815269 -0.476600 -7.314345 -38.845367 -19.131690 2.320443 -3.447392 2.956317 0.631110 -0.084480 0.002990 0.223300 16.039052 13.871468 7.752974 33.145380 -2.129627 -10.091495 58.775810 36.929661 13.312481 2.193821 -1.566881 -0.179870 0.289040 -0.084710 -0.177840 
-0.307010 18.338630 -1.080230 -15.272493 21.928678 -8.385668 -15.167148 13.026985 2.435084 9.716836 -0.547950 -7.064313 -6.478714 5.408401 8.339001 -0.311224 4.030177 3.323860 0.395050 0.011060 0.278210 18.373466 -9.366064 4.878604 -6.210530 12.850701 -42.368773 8.486881 -10.606669 48.921109 -0.906502 -7.079914 2.083432 -0.039330 0.142590 0.031830 -4.146969 -2.104767 -8.785814 14.169792 -3.252175 20.508142 -2.509942 -0.317412 4.393594 2.260712 0.498561 -12.254042 -4.001663 -2.096462 56.193216 7.003430 -9.162600 -2.718920 -19.508639 -13.713764 5.783949 -46.735214 -0.746120 -7.051965 -38.259934 -18.587481 2.099484 -3.470300 2.977076 0.609290 -0.061580 -0.006230 0.218750 15.079343 13.957883 7.550352 32.740685 -0.534569 -9.175020 59.043920 35.622046 12.976257 2.210167 -1.588517 -0.171900 0.257480 -0.084950 -0.183010 
-0.304450 18.266830 -1.043610 -14.390613 22.935478 -7.507708 -15.213989 13.247052 2.661272 8.180741 -0.603419 -7.405343 -6.699000 5.316053 8.118851 -0.323822 3.954914 3.358625 0.360690 -0.025940 0.261110 18.237506 -9.813575 4.379397 -3.927628 10.229365 -39.426849 5.089029 -6.672004 37.603382 -0.375586 -4.646891 2.905419 -0.053740 0.153560 0.026760 -3.971081 -2.012928 -8.559752 12.292771 -2.590084 18.278110 -1.153104 -0.347134 4.691764 2.276059 1.266083 -12.463522 -2.107076 -3.262309 54.714312 5.743300 -8.993310 -1.668720 -18.392503 -14.219607 6.357861 -47.992891 -0.897458 -6.819037 -38.184472 -18.113769 1.955053 -3.495486 2.979270 0.585430 -0.035870 -0.032590 0.210740 14.062265 14.177837 7.394148 32.027421 1.067869 -8.029016 59.788313 33.692923 12.509738 2.221179 -1.598180 -0.185030 0.246620 -0.073750 -0.188670 
-0.309140 18.173780 -0.988980 -12.670550 24.285088 -5.735409 -15.320063 13.378448 2.861890 6.100461 -0.718885 -8.150825 -7.055173 5.208011 7.840258 -0.307632 3.869363 3.414130 0.280560 -0.113940 0.200890 18.072193 -10.176028 3.913299 -3.038645 7.453810 -36.866369 3.087046 -4.310325 25.851144 0.015000 -2.765754 3.592770 -0.094840 0.210340 0.037660 -3.631689 -1.930750 -8.320074 8.675414 -1.538235 15.197317 1.075956 -0.295681 5.027208 2.130017 2.125503 -12.650197 -0.026345 -4.435668 52.133208 3.934770 -8.817260 1.439390 -17.010116 -14.473400 6.886499 -49.337328 -0.958100 -6.455665 -38.584648 -17.446606 1.880887 -3.560256 3.013697 0.511560 0.030940 -0.096470 0.206680 13.253327 14.120923 7.327808 31.506804 1.892329 -6.974935 60.917498 32.599001 12.513211 2.236770 -1.646165 -0.196840 0.217190 -0.044100 -0.173470 
-0.309090 18.065260 -0.939750 -10.957975 25.997266 -4.046233 -15.448991 13.443293 2.946591 4.017753 -0.844735 -9.046007 -6.888671 5.126290 8.325605 -0.306744 3.780052 3.466377 0.232200 -0.184360 0.157190 17.924584 -10.337448 3.615040 -3.839750 5.364557 -34.642146 3.104844 -3.300543 16.108933 0.196359 -1.845324 3.961678 -0.131740 0.256110 0.057340 -3.244825 -1.964957 -8.104482 4.888467 -0.865448 12.280011 3.826349 -0.527376 5.303931 1.815218 2.439669 -12.962232 0.739399 -5.100951 50.099326 2.769280 -8.969400 3.634090 -15.296829 -14.758714 7.417684 -51.239062 -1.112539 -6.116101 -39.213895 -16.782173 1.780809 -3.599135 3.053881 0.468790 0.080740 -0.146420 0.213120 12.533523 14.360814 7.421520 30.740833 2.411505 -6.109333 62.612834 32.480490 13.179674 2.234095 -1.694786 -0.202010 0.188510 -0.024100 -0.164450 
